<svg width="192" height="192" viewBox="0 0 192 192" xmlns="http://www.w3.org/2000/svg">
  <!-- Green round badge -->
  <circle cx="96" cy="96" r="96" fill="#D7201A"/>

  <!-- PDF symbol paths -->
  <path fill="#ffffff" d="M57.8 92.9v4.4c0 .2 0 .4.1.6.2.9.7 1.3 1.7 1.4h1.9c.4 0 .5-.1.6-.5.3-1.5.8-2.8 1.7-4 .1-.2.3-.4.4-.6l.4-.4c1.1-1.2 2.4-2 3.9-2.6 1.3-.5 2.6-.7 3.9-.7h12.1c2.1.1 4.1.7 5.7 2.1 1.8 1.5 3.1 3.3 3.7 5.6l.2.8c.1.2.2.3.3.3h2.6c.2 0 .3-.1.3-.3 0-.5.2-1 .4-1.5.9-2.9 2.9-4.8 5.5-6.1 1.3-.6 2.7-.8 4.1-.9h12c.9 0 1.9.1 2.8.4 3.6.9 5.9 3.2 7.2 6.6l.3 1.2c.1.5.2.5.6.5h1.9c.9 0 1.5-.5 1.6-1.5.1-.4.1-.8.1-1.3l.1-20.3v-.5c0-.2-.1-.3-.3-.3h-1.8l-13.1-.1c-.9 0-1.8 0-2.6-.2-1.4-.3-2.6-.9-3.7-1.9-1.5-1.3-2.2-3-2.4-5-.1-.8-.1-1.6-.1-2.5V55c0-.9 0-1.7 0-2.6 0-.5-.1-.5-.5-.5h-.8l-42.7-.1c-.9 0-1.7 0-2.5.2-2.4.6-4.1 2.1-5 4.4-.5 1.1-.7 2.3-.7 3.6l.1 34.4z"/>
  <path fill="#ffffff" d="M134.2 105.9c-.1-1.1-.8-1.6-1.8-1.7h-1.6c-.4 0-.5.2-.7.5l-.5 1.5c-1.4 3.7-5.5 6.8-9.7 6.6h-12.5c-.9 0-1.8-.1-2.7-.4-3-1.2-5.3-3.2-6.4-6.3l-.5-1.5c-.1-.2-.2-.4-.5-.4h-2.4c-.4 0-.5.1-.6.5l-.1.3c-.3 1.3-.9 2.4-1.7 3.5-.8 1.1-1.8 1.9-2.8 2.7-1.5 1-3.1 1.6-5 1.6H70.8c-2.3 0-4.2-.8-6-2.2-.5-.4-.9-.9-1.4-1.3-.1-.1-.1-.2-.2-.3-.7-.9-1.3-1.9-1.7-2.9l-.5-1.5c-.1-.3-.2-.4-.5-.4h-1.7c-1.3 0-1.8.9-1.9 1.7-.1.3-.1.7-.1 1v6.1l.1.5v13.4c0 2.4 0 4.7 0 7.1 0 1.4.3 2.7 1 3.9.9 1.6 2.1 2.8 3.9 3.3.9.3 1.8.4 2.7.4h62.9c2 0 3.7-.9 5-2.3 1.2-1.3 1.9-2.9 2-4.7l.1-2.8v-17.5c0-2.5 0-5 0-7.6-.1-.4-.1-.9-.1-1.2z"/>
</svg>
